<svg width="46" height="46" viewBox="0 0 46 46" fill="none" xmlns="http://www.w3.org/2000/svg">
  <path d="M26.5419 16.9672C26.4039 16.7536 26.2462 16.5367 26.0819 16.31C25.4309 15.3906 24.657 14.5647 23.7819 13.8552C23.7652 13.84 23.7477 13.8258 23.7294 13.8125L23.6801 13.8027C23.5979 13.7468 23.5552 13.7238 23.5552 13.7238C23.4628 13.6697 23.3633 13.6287 23.2595 13.6022C23.1743 13.5833 23.0873 13.5734 22.9999 13.5726C22.9301 13.5728 22.8606 13.5817 22.7929 13.5989C22.6229 13.6467 22.4642 13.7283 22.3264 13.8388C22.2738 13.875 22.2114 13.9242 22.1457 13.9801C21.1327 14.8465 20.2477 15.8522 19.5171 16.9672C18.3959 18.6602 17.795 20.6445 17.7888 22.6752C17.7885 24.0463 18.1139 25.3979 18.7384 26.6185L18.8402 26.8124C18.883 26.8945 18.9322 26.9734 18.9782 27.0556C19.6582 28.1171 20.4857 29.0764 21.4359 29.9046C22.0471 30.4205 22.6089 30.8576 23.1149 31.2191C23.4435 30.9792 23.7721 30.736 24.0645 30.4863C24.2255 30.3548 24.3931 30.2201 24.5311 30.0854L24.5606 30.0591C24.7052 29.9309 24.8432 29.8028 24.9779 29.6746L25.0436 29.6089C25.1619 29.4906 25.2835 29.3723 25.3952 29.254C25.4346 29.2145 25.4708 29.1718 25.5069 29.1324L25.7895 28.8268L25.9636 28.6165C26.0261 28.5409 26.0951 28.4653 26.1542 28.3897C26.2725 28.2418 26.3875 28.0907 26.4828 27.9428C27.6214 26.4215 28.2432 24.5755 28.2571 22.6752C28.2548 20.6459 27.6585 18.6616 26.5419 16.9672Z" fill="#4E61FF"/>
  <path d="M23.519 37.673L23.0426 37.3838C19.9902 38.8658 16.7308 41.4783 14.9729 44.5541C20.1914 46.4955 25.9362 46.4815 31.1451 44.5147C29.2427 41.4947 26.5616 39.4508 23.519 37.673Z" fill="#4E61FF"/>
  <path d="M45.9998 23.0037C46 19.0374 44.9747 15.1384 43.0235 11.6853C41.0722 8.23223 38.2614 5.34242 34.8639 3.29647C31.4664 1.25052 27.5976 0.117948 23.6333 0.00872503C19.6689 -0.100498 15.7437 0.817338 12.2387 2.67312C8.73372 4.52889 5.76808 7.25955 3.62974 10.6C1.4914 13.9404 0.253014 17.777 0.0348362 21.7373C-0.183341 25.6977 0.626099 29.6472 2.38456 33.2023C4.14303 36.7574 6.79076 39.7974 10.0707 42.0271C10.2383 41.7642 10.5307 41.3271 10.7738 40.9689C11.017 40.6107 13.9182 36.5622 18.3539 34.1765C18.3539 34.1765 18.2488 34.0944 18.1962 34.0484L18.1042 33.9662C15.7385 31.9091 14.1022 29.6515 13.2184 27.2001C13.2184 27.1738 13.1987 27.1508 13.1855 27.1212C12.7285 25.8837 12.4702 24.5816 12.42 23.2633C12.3974 22.708 12.4051 22.1518 12.443 21.5973C12.443 21.5776 12.443 21.5578 12.443 21.5414C12.443 21.4001 12.443 21.3114 12.443 21.3114C12.5 20.5364 12.6187 19.7672 12.7978 19.0111C13.6291 15.5607 15.6235 12.9449 17.5687 11.0981H17.5522C18.8716 9.83087 20.3585 8.75062 21.9715 7.8876H22.0011C22.3068 7.734 22.6446 7.65516 22.9868 7.65757C23.2247 7.65539 23.4612 7.69316 23.6866 7.7693C23.6866 7.7693 24.1006 7.83502 25.5595 8.84386C25.8355 9.02788 26.1411 9.24477 26.4762 9.50108C29.2132 11.5812 33.6062 15.9747 33.6062 22.6948C33.6062 22.9709 33.6062 23.2436 33.5832 23.5164C33.5832 23.6248 33.5634 23.73 33.5536 23.845C33.5536 24.006 33.5306 24.1736 33.5109 24.328C33.4912 24.4825 33.4715 24.6074 33.4485 24.7454C33.4254 24.8834 33.4156 24.9984 33.3926 25.12C33.3696 25.2416 33.3269 25.4486 33.2907 25.5932C33.271 25.6951 33.2513 25.7969 33.225 25.8988C33.1823 26.073 33.133 26.2274 33.0837 26.4114C33.0607 26.4969 33.041 26.5823 33.0147 26.6645C32.9556 26.8485 32.8932 27.0292 32.8275 27.21C32.8045 27.279 32.7815 27.348 32.7552 27.4137C32.6829 27.6076 32.604 27.7982 32.5219 27.9888L32.4529 28.1498C32.3642 28.3502 32.2656 28.5507 32.167 28.7479C32.144 28.7906 32.1243 28.8333 32.1046 28.876C31.9962 29.0798 31.8812 29.2835 31.776 29.4872C31.7563 29.5201 31.7399 29.553 31.7202 29.5825C31.5953 29.7961 31.4639 30.0032 31.3259 30.2102L31.2799 30.2792C31.1386 30.4928 30.9875 30.7064 30.8297 30.9167C30.8207 30.9333 30.8097 30.9488 30.7969 30.9627C30.6359 31.1796 30.4683 31.3932 30.2909 31.6199L30.2679 31.6462C30.0872 31.8631 29.8999 32.0767 29.706 32.3034C29.5089 32.5203 29.3052 32.7339 29.0916 32.9607C28.6535 33.3857 28.1968 33.8019 27.7215 34.2094L28.0303 34.3835C32.3017 36.8284 35.0716 40.729 35.3213 41.0938C35.571 41.4586 35.8043 41.8233 35.9587 42.0796C39.0652 39.9643 41.6052 37.1189 43.3559 33.793C45.1065 30.4671 46.0144 26.7623 45.9998 23.0037Z" fill="#4E61FF"/>
  <path d="M23.0328 37.3903L22.7896 37.2392C22.2343 36.9106 21.8236 36.6543 21.3768 36.3651C20.3295 35.6845 19.3194 34.9484 18.3506 34.1601C13.9149 36.5622 11.0202 40.6042 10.7705 40.9689C10.5208 41.3337 10.235 41.7642 10.0674 42.0271C10.8158 42.5387 11.5949 43.004 12.4002 43.4204C13.229 43.853 14.0839 44.2338 14.9598 44.5607C16.7209 41.4848 19.9803 38.8724 23.0328 37.3903Z" fill="white"/>
  <path d="M23.0328 37.3903L22.7896 37.2392C22.2343 36.9106 21.8236 36.6543 21.3768 36.3651C20.3295 35.6845 19.3194 34.9484 18.3506 34.1601C13.9149 36.5622 11.0202 40.6042 10.7705 40.9689C10.5208 41.3337 10.235 41.7642 10.0674 42.0271C10.7952 42.5207 11.5511 42.9716 12.3312 43.3776C13.1821 43.8241 14.06 44.217 14.9598 44.5541C16.7209 41.4848 19.9803 38.8724 23.0328 37.3903Z" fill="url(#paint0_linear_35564_42280)"/>
  <path d="M35.2918 41.0543C35.0421 40.6896 32.2821 36.7824 28.0008 34.3441L27.692 34.1699C28.1782 33.7625 28.6349 33.3462 29.0621 32.9212C29.2757 32.7109 29.4794 32.4973 29.6765 32.264C29.8704 32.0504 30.0577 31.8368 30.2384 31.6068L30.2614 31.5805C30.4355 31.3669 30.6064 31.1533 30.7674 30.9233C30.7801 30.9093 30.7912 30.8939 30.8002 30.8772C30.9579 30.6669 31.1091 30.4533 31.2504 30.2397L31.2964 30.1707C31.4344 29.9637 31.5658 29.7567 31.6907 29.5431C31.7104 29.5135 31.7268 29.4806 31.7465 29.4478C31.8615 29.244 31.9765 29.0403 32.0751 28.8366C32.0948 28.7938 32.1145 28.7511 32.1375 28.7084C32.2361 28.5112 32.3347 28.3108 32.4234 28.1103L32.4924 27.9493C32.5745 27.7587 32.6534 27.5681 32.7256 27.3743C32.7519 27.3085 32.7749 27.2395 32.7979 27.1705C32.8636 26.9898 32.9261 26.809 32.9852 26.625C33.0115 26.5429 33.0312 26.4574 33.0542 26.372C33.1035 26.2011 33.1528 26.0434 33.1955 25.8594C33.2218 25.7575 33.2415 25.6556 33.2612 25.5537C33.2974 25.396 33.3335 25.2251 33.3631 25.0805C33.3926 24.936 33.3992 24.8308 33.4189 24.7059C33.4386 24.5811 33.4649 24.4299 33.4814 24.2886C33.4978 24.1473 33.5109 23.96 33.5241 23.8055C33.5241 23.6971 33.5471 23.5919 33.5536 23.4769C33.5536 23.2042 33.5766 22.9314 33.5766 22.6554C33.5766 15.9353 29.1837 11.5417 26.4467 9.46164C26.1181 9.20532 25.7895 8.98844 25.53 8.80441C24.0711 7.79558 23.6571 7.72985 23.6571 7.72985C23.4448 7.66163 23.223 7.62725 23 7.62798C22.6578 7.62557 22.32 7.70441 22.0143 7.85801H21.9847C20.3747 8.7365 18.8932 9.83228 17.5818 11.1146H17.5983C15.64 12.9712 13.6456 15.587 12.8143 19.0374C12.6352 19.7935 12.5165 20.5627 12.4594 21.3377C12.4594 21.3377 12.4594 21.4264 12.4594 21.5677C12.4594 21.5677 12.4594 21.6038 12.4594 21.6235C12.4216 22.1781 12.4139 22.7343 12.4364 23.2896C12.4866 24.6079 12.745 25.91 13.202 27.1475C13.202 27.1771 13.2217 27.2001 13.2349 27.2264C14.1187 29.6778 15.755 31.9354 18.124 33.9695L18.216 34.0516C18.2686 34.0976 18.3737 34.1798 18.3737 34.1798C19.3424 34.9681 20.3526 35.7042 21.3998 36.3848C21.8467 36.674 22.2574 36.9237 22.8127 37.2589L23.0558 37.41L23.5323 37.6992C26.5748 39.477 29.2691 41.521 31.1485 44.5475C32.8396 43.9089 34.4488 43.0717 35.9424 42.0533C35.7748 41.7839 35.5612 41.4487 35.2918 41.0543ZM26.1608 28.3897C26.1017 28.4652 26.0327 28.5408 25.9702 28.6164L25.7961 28.8267L25.5135 29.1323C25.4774 29.1718 25.4412 29.2145 25.4018 29.2539C25.2901 29.3722 25.1685 29.4905 25.0502 29.6088L24.9845 29.6745C24.8498 29.8027 24.7118 29.9308 24.5672 30.059L24.5377 30.0853C24.3865 30.22 24.2321 30.3548 24.0711 30.4862C23.7688 30.7359 23.4501 30.9791 23.1215 31.219C22.6155 30.8444 22.0537 30.4073 21.4425 29.9046C20.4913 29.0723 19.6638 28.1085 18.9848 27.0424C18.9388 26.9602 18.8896 26.8813 18.8468 26.7992L18.7286 26.5987C18.1041 25.3781 17.7786 24.0265 17.779 22.6554C17.7855 20.6273 18.3851 18.6454 19.504 16.954C20.2346 15.839 21.1196 14.8333 22.1325 13.9669C22.1983 13.911 22.2607 13.8617 22.3133 13.8256C22.4511 13.7151 22.6098 13.6335 22.7798 13.5857C22.8523 13.5718 22.9263 13.5673 23 13.5726C23.0872 13.5722 23.1742 13.581 23.2595 13.5989C23.3633 13.6254 23.4628 13.6663 23.5553 13.7204C23.5553 13.7204 23.598 13.7434 23.6801 13.7993L23.7261 13.8256C23.7444 13.8388 23.762 13.8531 23.7787 13.8683C24.6538 14.5777 25.4276 15.4037 26.0787 16.323C26.243 16.5399 26.4072 16.7568 26.5387 16.9803C27.654 18.6706 28.2512 20.6499 28.2571 22.6751C28.243 24.5713 27.6237 26.4134 26.4894 27.9329C26.3941 28.0906 26.2857 28.2418 26.1608 28.3897Z" fill="white"/>
  <path opacity="0.7" d="M27.6229 34.1338L27.6919 34.1699C27.9087 33.9859 28.1552 33.7756 28.4147 33.539C28.7433 33.2104 29.0127 32.9738 29.0719 32.9047C29.2854 32.6944 29.4891 32.4808 29.6863 32.2475C29.8801 32.0339 30.0674 31.8203 30.2481 31.5903L30.2711 31.564C30.4453 31.3504 30.6161 31.1368 30.7771 30.9068C30.7899 30.8928 30.801 30.8774 30.81 30.8608C30.9677 30.6505 31.1189 30.4369 31.2601 30.2233L31.3061 30.1543C31.4441 29.9472 31.5756 29.7402 31.7004 29.5299L31.7563 29.4313C31.8713 29.2276 31.9863 29.0238 32.0849 28.8201C32.1046 28.7774 32.1243 28.7347 32.1473 28.692C32.2459 28.4948 32.3444 28.2943 32.4331 28.0939L32.5021 27.9329C32.5843 27.7423 32.6631 27.5517 32.7354 27.3578C32.7617 27.2921 32.7847 27.2231 32.8077 27.154C32.8734 26.9733 32.9359 26.7926 32.995 26.6086C33.0213 26.5264 33.041 26.441 33.064 26.3555C33.1133 26.1846 33.1626 26.0269 33.2053 25.8429C33.2316 25.741 33.2513 25.6392 33.271 25.5373C33.3071 25.3795 33.3433 25.2087 33.3728 25.0641C33.4024 24.9195 33.409 24.8143 33.4287 24.6895C33.4484 24.5646 33.4747 24.4134 33.4911 24.2721C33.5076 24.1308 33.5207 23.9435 33.5338 23.7891C33.5338 23.6806 33.5568 23.5755 33.5634 23.4605C33.5634 23.1877 33.5864 22.915 33.5864 22.6389C33.5864 14.3776 26.946 9.63248 24.9089 8.3739L23.726 13.8223C24.8027 14.737 25.75 15.7938 26.5419 16.9638C27.6591 18.6592 28.2553 20.6446 28.257 22.6751C28.2429 24.5713 27.6236 26.4134 26.4893 27.9329C26.3842 28.0807 26.2692 28.2319 26.1607 28.3798C26.1016 28.4554 26.0326 28.5309 25.9702 28.6065L25.796 28.8168L25.5135 29.1224C25.4773 29.1619 25.4412 29.2046 25.4017 29.244C25.29 29.3623 25.1685 29.4806 25.0502 29.5989L24.9845 29.6646C24.8497 29.7928 24.7117 29.921 24.5672 30.0491L24.5376 30.0754C24.3865 30.2101 24.232 30.3449 24.071 30.4763C23.7687 30.7261 23.45 30.9692 23.1215 31.2091C23.4927 31.4786 24.3635 32.0799 25.3097 32.6747C26.6142 33.5193 26.8113 33.6737 27.6229 34.1338Z" fill="url(#paint1_linear_35564_42280)"/>
  <defs>
    <linearGradient id="paint0_linear_35564_42280" x1="21.8236" y1="32.2049" x2="13.1512" y2="44.4972" gradientUnits="userSpaceOnUse">
      <stop stop-color="#3750E2" stop-opacity="0.6"/>
      <stop offset="0.19" stop-color="#3851E7" stop-opacity="0.57"/>
      <stop offset="0.21" stop-color="#3248DB" stop-opacity="0.51"/>
      <stop offset="0.26" stop-color="#2535C1" stop-opacity="0.37"/>
      <stop offset="0.31" stop-color="#1924AB" stop-opacity="0.26"/>
      <stop offset="0.37" stop-color="#101799" stop-opacity="0.16"/>
      <stop offset="0.44" stop-color="#090D8C" stop-opacity="0.09"/>
      <stop offset="0.53" stop-color="#040582" stop-opacity="0.04"/>
      <stop offset="0.65" stop-color="#01017D" stop-opacity="0.01"/>
      <stop offset="0.98" stop-color="#00007B" stop-opacity="0"/>
    </linearGradient>
    <linearGradient id="paint1_linear_35564_42280" x1="16.3463" y1="31.518" x2="23.7171" y2="24.0135" gradientUnits="userSpaceOnUse">
      <stop offset="0.05" stop-color="#3750E2" stop-opacity="0.6"/>
      <stop offset="0.43" stop-color="#3851E7" stop-opacity="0.57"/>
      <stop offset="0.44" stop-color="#364DE2" stop-opacity="0.55"/>
      <stop offset="0.6" stop-color="#1F2CB6" stop-opacity="0.31"/>
      <stop offset="0.74" stop-color="#0E1496" stop-opacity="0.14"/>
      <stop offset="0.85" stop-color="#040582" stop-opacity="0.04"/>
      <stop offset="0.92" stop-color="#00007B" stop-opacity="0"/>
    </linearGradient>
  </defs>
</svg>
